<?xml version="1.0" encoding="UTF-8" standalone="no"?>
<svg
   width="24"
   height="24"
   version="1.1"
   id="svg1"
   sodipodi:docname="ozone-o3.svg"
   xml:space="preserve"
   inkscape:version="1.3.2 (091e20e, 2023-11-25, custom)"
   xmlns:inkscape="http://www.inkscape.org/namespaces/inkscape"
   xmlns:sodipodi="http://sodipodi.sourceforge.net/DTD/sodipodi-0.dtd"
   xmlns="http://www.w3.org/2000/svg"
   xmlns:svg="http://www.w3.org/2000/svg"><defs
     id="defs1" /><sodipodi:namedview
     id="namedview1"
     pagecolor="#505050"
     bordercolor="#ffffff"
     borderopacity="1"
     inkscape:showpageshadow="0"
     inkscape:pageopacity="0"
     inkscape:pagecheckerboard="1"
     inkscape:deskcolor="#d1d1d1"
     inkscape:zoom="49.208333"
     inkscape:cx="11.989839"
     inkscape:cy="10.374259"
     inkscape:window-width="2560"
     inkscape:window-height="1377"
     inkscape:window-x="1912"
     inkscape:window-y="-8"
     inkscape:window-maximized="1"
     inkscape:current-layer="g1" /><g
     style="fill:currentColor;fill-rule:evenodd;stroke:#000000;stroke-linecap:round;stroke-linejoin:round"
     id="g1"
     transform="matrix(0.31817771,0,0,0.31653494,-11.863195,-11.760417)"><symbol
       id="A"
       overflow="visible"
       transform="translate(37.598499,37.598499)"><g
         fill-rule="nonzero"
         id="g2"><path
           id="path1-8"
           d="M 35.851562,0 C 16.054582,0 0,16.040192 0,35.826172 c 0,19.78598 16.051582,35.828125 35.851562,35.828125 19.799981,0 35.84961,-16.041145 35.84961,-35.828125 C 71.701172,16.042192 55.648543,0 35.851562,0 Z M 13.431641,33.28125 c 0.143292,-0.0052 0.312916,0.105744 0.40625,0.365234 0.702287,1.952528 1.545837,3.851978 2.373047,5.753907 0.774551,1.752189 0.399401,0.905225 1.128906,2.546875 0.255962,0.57601 -0.326069,0.833825 -0.582032,0.257812 -0.73052,-1.643938 -0.354618,-0.794731 -1.130859,-2.550781 -0.838297,-1.927486 -1.695792,-3.851356 -2.402344,-5.832031 -0.119126,-0.333946 0.0228,-0.534386 0.207032,-0.541016 z"
           style="display:inline" /><path
           d="m 41.24,50.237 3.487,-0.423 c 0.111,0.892 0.409,1.576 0.892,2.047 0.483,0.471 1.07,0.708 1.757,0.708 0.742,0 1.363,-0.283 1.869,-0.848 0.506,-0.565 0.757,-1.33 0.757,-2.291 0,-0.908 -0.241,-1.628 -0.724,-2.16 -0.483,-0.532 -1.071,-0.796 -1.768,-0.796 -0.457,0 -1.003,0.09 -1.639,0.269 l 0.396,-2.906 c 0.977,0.026 1.721,-0.187 2.235,-0.638 0.514,-0.451 0.769,-1.045 0.769,-1.792 0,-0.633 -0.189,-1.14 -0.565,-1.516 -0.376,-0.376 -0.881,-0.567 -1.508,-0.567 -0.617,0 -1.145,0.215 -1.582,0.641 -0.437,0.426 -0.705,1.055 -0.799,1.879 l -3.311,-0.567 c 0.231,-1.145 0.58,-2.058 1.045,-2.742 0.465,-0.684 1.115,-1.223 1.947,-1.615 0.832,-0.392 1.768,-0.586 2.802,-0.586 1.768,0 3.188,0.567 4.256,1.696 0.879,0.925 1.32,1.972 1.32,3.139 0,1.654 -0.899,2.973 -2.698,3.959 1.068,0.231 1.919,0.749 2.561,1.553 0.642,0.804 0.957,1.775 0.957,2.911 0,1.651 -0.601,3.057 -1.804,4.22 -1.203,1.163 -2.696,1.745 -4.487,1.745 -1.697,0 -3.103,-0.49 -4.22,-1.472 -1.117,-0.982 -1.77,-2.264 -1.947,-3.85 z M 23.216,31.886 c 0,-2.624 0.391,-4.79 1.169,-6.486 0.778,-1.696 1.796,-2.963 3.051,-3.797 1.255,-0.834 2.779,-1.247 4.567,-1.247 2.589,0 4.698,0.987 6.335,2.963 1.637,1.976 2.447,4.786 2.447,8.433 0,3.686 -0.863,6.567 -2.59,8.645 -1.517,1.833 -3.577,2.748 -6.177,2.748 -2.623,0 -4.694,-0.902 -6.209,-2.719 -1.724,-2.074 -2.59,-4.919 -2.59,-8.54 z m 3.792,-0.149 c 0,2.54 0.482,4.448 1.441,5.715 0.959,1.267 2.154,1.908 3.575,1.908 1.431,0 2.616,-0.632 3.557,-1.892 0.941,-1.26 1.415,-3.194 1.415,-5.809 0,-2.556 -0.461,-4.448 -1.376,-5.675 -0.915,-1.227 -2.115,-1.836 -3.596,-1.836 -1.481,0 -2.69,0.619 -3.616,1.849 -0.939,1.24 -1.402,3.15 -1.402,5.74 z"
           stroke="none"
           fill="#00b1eb"
           id="path2"
           style="display:inline" /></g></symbol><path
       style="fill:#000000;fill-opacity:1;stroke:#000000;stroke-width:4.59279;stroke-dasharray:none;stroke-opacity:1"
       d="m 73.609325,110.03516 c -12.569799,-0.5343 -23.793809,-7.67872 -29.662197,-18.880891 -1.904827,-3.636125 -3.184431,-7.803562 -3.676192,-11.972681 -0.299898,-2.54251 -0.299832,-5.60824 1.74e-4,-8.190267 1.244396,-10.709989 7.511653,-20.363633 16.836215,-25.933325 5.640771,-3.369311 12.163561,-5.088652 18.708856,-4.93146 0.820113,0.01969 1.933978,0.07736 2.475254,0.128128 7.331137,0.687699 14.057045,3.546472 19.712581,8.37862 0.907433,0.775318 2.808884,2.672179 3.573734,3.565097 6.73144,7.858588 9.64739,17.836968 8.17556,27.976681 -1.60597,11.063855 -8.57566,20.820558 -18.550866,25.968928 -5.437697,2.80647 -11.510835,4.1497 -17.593119,3.89117 z m 3.757617,-2.9784 c 3.258443,-0.23647 6.577675,-0.99008 9.593058,-2.17802 1.186673,-0.4675 3.533522,-1.63224 4.650551,-2.30808 7.303016,-4.418517 12.515929,-11.405041 14.584829,-19.547092 1.03814,-4.085576 1.26311,-8.359027 0.66162,-12.568337 -1.27163,-8.899087 -6.3669,-16.954474 -13.922785,-22.011258 -2.346827,-1.570616 -5.272222,-2.991181 -7.902925,-3.837639 -5.289457,-1.701943 -11.045771,-2.024306 -16.402299,-0.918553 -7.780139,1.606058 -14.51186,5.886314 -19.340037,12.297045 -2.568883,3.410899 -4.51876,7.620594 -5.502346,11.879303 -0.50631,2.192215 -0.741125,4.147031 -0.787058,6.552214 -0.03602,1.886236 0.02284,3.106632 0.228383,4.735463 1.086439,8.609329 5.697148,16.476262 12.696731,21.663554 4.811117,3.56545 10.49426,5.70631 16.491766,6.21251 1.111837,0.0938 3.836477,0.10974 4.950512,0.029 z"
       id="path9" /><path
       style="fill:#000000;fill-opacity:1;stroke:#000000;stroke-width:0.13151;stroke-dasharray:none;stroke-opacity:1"
       d="m 68.133998,84.045483 c -1.390186,-0.140512 -2.462491,-0.435754 -3.617106,-0.995914 -2.073115,-1.005769 -3.767728,-2.93808 -4.793331,-5.465679 -1.174622,-2.894855 -1.43244,-7.263438 -0.64604,-10.946777 0.328906,-1.540527 1.052968,-3.238041 1.920699,-4.502942 1.591047,-2.319287 3.738773,-3.637455 6.565051,-4.029301 1.049477,-0.145505 3.044568,-0.107625 3.915579,0.07434 1.936756,0.404608 3.43068,1.175572 4.823355,2.489168 2.624673,2.475639 3.815035,6.048074 3.669591,11.012921 -0.08949,3.054529 -0.53924,4.953827 -1.689086,7.132908 -1.071607,2.03081 -2.627997,3.557145 -4.470243,4.383919 -1.574551,0.706636 -3.794017,1.037833 -5.678469,0.847363 z m 2.391625,-4.350771 c 1.610381,-0.320953 3.087496,-1.533135 3.910097,-3.208791 0.775926,-1.580576 1.14772,-4.149206 0.974434,-6.732103 -0.201703,-3.006489 -0.904919,-4.807059 -2.39304,-6.127334 -0.892972,-0.792254 -1.770799,-1.174354 -3.030972,-1.319325 -1.73165,-0.199211 -3.368064,0.359633 -4.586989,1.566478 -0.895191,0.886319 -1.402545,1.808905 -1.770042,3.218686 -0.340585,1.306541 -0.395985,1.868199 -0.391305,3.967127 0.0048,2.134875 0.08283,2.815032 0.470236,4.096849 0.728088,2.409035 2.501288,4.178069 4.581531,4.570766 0.510507,0.09638 1.674696,0.07952 2.23605,-0.03235 z"
       id="path10" /><path
       style="fill:#000000;fill-opacity:1;stroke:#000000;stroke-width:0.207;stroke-dasharray:none;stroke-opacity:1"
       d="m 85.734766,94.672787 c -2.759065,-0.318288 -4.791688,-2.22918 -5.216716,-4.904294 l -0.04703,-0.295989 0.228242,-0.03508 c 0.690194,-0.106081 3.130438,-0.37598 3.157219,-0.3492 0.01732,0.01732 0.08699,0.24848 0.154816,0.513688 0.316986,1.2394 1.040004,1.960972 2.163134,2.158808 1.326589,0.233674 2.57909,-0.664796 2.941572,-2.110108 0.109319,-0.435879 0.108938,-1.650811 -6.38e-4,-2.037514 -0.223356,-0.788249 -0.764383,-1.454027 -1.431938,-1.762118 -0.351606,-0.162274 -0.452482,-0.1789 -1.057252,-0.174261 -0.376414,0.0029 -0.849248,0.04931 -1.082056,0.106245 -0.227423,0.05561 -0.41871,0.0959 -0.425082,0.08953 -0.0064,-0.0064 0.07223,-0.613018 0.174682,-1.348103 0.102447,-0.735085 0.186287,-1.355727 0.186311,-1.379205 2.4e-5,-0.02348 0.193448,-0.06211 0.429832,-0.08586 0.965707,-0.097 1.507673,-0.31994 1.964182,-0.807985 0.470447,-0.502946 0.566792,-0.782093 0.566792,-1.642202 0,-0.670624 -0.01425,-0.759018 -0.169413,-1.050593 -0.202024,-0.379643 -0.490803,-0.664205 -0.88118,-0.868314 -0.247701,-0.12951 -0.377115,-0.149852 -0.955085,-0.150126 -0.58756,-2.79e-4 -0.710987,0.0197 -1.018757,0.16487 -0.682506,0.321935 -1.192892,1.038924 -1.357999,1.907715 -0.06948,0.365603 -0.08307,0.386469 -0.233382,0.358417 -0.08778,-0.01638 -0.811452,-0.139502 -1.608152,-0.2736 -1.212323,-0.204055 -1.448545,-0.261129 -1.448545,-0.349986 0,-0.179977 0.312708,-1.196541 0.512488,-1.666018 0.692084,-1.626373 2.097188,-2.678119 4.027667,-3.014781 0.775146,-0.13518 2.16162,-0.09026 2.851779,0.0924 0.989384,0.261847 1.780803,0.717129 2.487778,1.43115 1.393896,1.40779 1.766155,3.30944 0.968404,4.947005 -0.184573,0.378879 -0.359063,0.602517 -0.844544,1.08243 -0.353872,0.349812 -0.77892,0.698861 -1.007965,0.82774 -0.217832,0.122569 -0.39691,0.237561 -0.397952,0.255538 -0.001,0.01798 0.243061,0.115853 0.54245,0.217504 1.931552,0.655812 3.070292,2.447744 2.936397,4.620743 -0.09117,1.479647 -0.656359,2.705663 -1.739192,3.772697 -1.043814,1.028583 -2.247632,1.596362 -3.736681,1.762401 -0.685056,0.07639 -0.946197,0.07582 -1.634189,-0.0035 z"
       id="path11" /></g></svg>
