<?xml version="1.0" encoding="UTF-8" standalone="no"?>
<svg
   viewBox="0 0 75.197 75.197"
   fill="currentColor"
   fill-rule="evenodd"
   stroke="#000"
   stroke-linecap="round"
   stroke-linejoin="round"
   version="1.1"
   id="svg2"
   sodipodi:docname="ozone-o3.svg"
   inkscape:version="1.3.2 (091e20e, 2023-11-25, custom)"
   inkscape:export-filename="ozone-o3.svg"
   inkscape:export-xdpi="30.639521"
   inkscape:export-ydpi="30.639521"
   xmlns:inkscape="http://www.inkscape.org/namespaces/inkscape"
   xmlns:sodipodi="http://sodipodi.sourceforge.net/DTD/sodipodi-0.dtd"
   xmlns="http://www.w3.org/2000/svg"
   xmlns:svg="http://www.w3.org/2000/svg">
  <defs
     id="defs2" />
  <sodipodi:namedview
     id="namedview2"
     pagecolor="#505050"
     bordercolor="currentColor"
     borderopacity="1"
     inkscape:showpageshadow="0"
     inkscape:pageopacity="0"
     inkscape:pagecheckerboard="1"
     inkscape:deskcolor="#d1d1d1"
     inkscape:zoom="15.705414"
     inkscape:cx="37.566663"
     inkscape:cy="37.598499"
     inkscape:window-width="2560"
     inkscape:window-height="1377"
     inkscape:window-x="1912"
     inkscape:window-y="-8"
     inkscape:window-maximized="1"
     inkscape:current-layer="svg2" />
  <g
     id="use1"
     transform="translate(1.598,1.598)">
    <g
       fill-rule="nonzero"
       id="g7">
      <path
         d="m 71.702,35.827 c 0,19.787 -16.051,35.827 -35.851,35.827 C 16.051,71.654 0,55.613 0,35.827 0,16.041 16.054,0 35.851,0 55.648,0 71.702,16.043 71.702,35.827 Z"
         stroke="#00b1eb"
         stroke-linejoin="miter"
         stroke-width="3.197"
         id="path6"
         style="display:inline;image-rendering:auto;fill:#000000;fill-opacity:0"
         inkscape:label="path6"
         inkscape:highlight-color="#aaaaaa" />
      <path
         d="m 41.24,50.237 3.487,-0.423 c 0.111,0.892 0.409,1.576 0.892,2.047 0.483,0.471 1.07,0.708 1.757,0.708 0.742,0 1.363,-0.283 1.869,-0.848 0.506,-0.565 0.757,-1.33 0.757,-2.291 0,-0.908 -0.241,-1.628 -0.724,-2.16 -0.483,-0.532 -1.071,-0.796 -1.768,-0.796 -0.457,0 -1.003,0.09 -1.639,0.269 l 0.396,-2.906 c 0.977,0.026 1.721,-0.187 2.235,-0.638 0.514,-0.451 0.769,-1.045 0.769,-1.792 0,-0.633 -0.189,-1.14 -0.565,-1.516 -0.376,-0.376 -0.881,-0.567 -1.508,-0.567 -0.617,0 -1.145,0.215 -1.582,0.641 -0.437,0.426 -0.705,1.055 -0.799,1.879 l -3.311,-0.567 c 0.231,-1.145 0.58,-2.058 1.045,-2.742 0.465,-0.684 1.115,-1.223 1.947,-1.615 0.832,-0.392 1.768,-0.586 2.802,-0.586 1.768,0 3.188,0.567 4.256,1.696 0.879,0.925 1.32,1.972 1.32,3.139 0,1.654 -0.899,2.973 -2.698,3.959 1.068,0.231 1.919,0.749 2.561,1.553 0.642,0.804 0.957,1.775 0.957,2.911 0,1.651 -0.601,3.057 -1.804,4.22 -1.203,1.163 -2.696,1.745 -4.487,1.745 -1.697,0 -3.103,-0.49 -4.22,-1.472 -1.117,-0.982 -1.77,-2.264 -1.947,-3.85 z M 23.216,31.886 c 0,-2.624 0.391,-4.79 1.169,-6.486 0.778,-1.696 1.796,-2.963 3.051,-3.797 1.255,-0.834 2.779,-1.247 4.567,-1.247 2.589,0 4.698,0.987 6.335,2.963 1.637,1.976 2.447,4.786 2.447,8.433 0,3.686 -0.863,6.567 -2.59,8.645 -1.517,1.833 -3.577,2.748 -6.177,2.748 -2.623,0 -4.694,-0.902 -6.209,-2.719 -1.724,-2.074 -2.59,-4.919 -2.59,-8.54 z m 3.792,-0.149 c 0,2.54 0.482,4.448 1.441,5.715 0.959,1.267 2.154,1.908 3.575,1.908 1.431,0 2.616,-0.632 3.557,-1.892 0.941,-1.26 1.415,-3.194 1.415,-5.809 0,-2.556 -0.461,-4.448 -1.376,-5.675 -0.915,-1.227 -2.115,-1.836 -3.596,-1.836 -1.481,0 -2.69,0.619 -3.616,1.849 -0.939,1.24 -1.402,3.15 -1.402,5.74 z"
         stroke="none"
         fill="#00b1eb"
         id="path7"
         style="display:inline" />
    </g>
  </g>
  <symbol
     id="A"
     overflow="visible">
    <g
       fill-rule="nonzero"
       id="g2">
      <path
         id="path1"
         d="M 35.851562,0 C 16.054582,0 0,16.040192 0,35.826172 c 0,19.78598 16.051582,35.828125 35.851562,35.828125 19.799981,0 35.84961,-16.041145 35.84961,-35.828125 C 71.701172,16.042192 55.648543,0 35.851562,0 Z M 13.431641,33.28125 c 0.143292,-0.0052 0.312916,0.105744 0.40625,0.365234 0.702287,1.952528 1.545837,3.851978 2.373047,5.753907 0.774551,1.752189 0.399401,0.905225 1.128906,2.546875 0.255962,0.57601 -0.326069,0.833825 -0.582032,0.257812 -0.73052,-1.643938 -0.354618,-0.794731 -1.130859,-2.550781 -0.838297,-1.927486 -1.695792,-3.851356 -2.402344,-5.832031 -0.119126,-0.333946 0.0228,-0.534386 0.207032,-0.541016 z"
         style="display:inline" />
      <path
         d="m 41.24,50.237 3.487,-0.423 c 0.111,0.892 0.409,1.576 0.892,2.047 0.483,0.471 1.07,0.708 1.757,0.708 0.742,0 1.363,-0.283 1.869,-0.848 0.506,-0.565 0.757,-1.33 0.757,-2.291 0,-0.908 -0.241,-1.628 -0.724,-2.16 -0.483,-0.532 -1.071,-0.796 -1.768,-0.796 -0.457,0 -1.003,0.09 -1.639,0.269 l 0.396,-2.906 c 0.977,0.026 1.721,-0.187 2.235,-0.638 0.514,-0.451 0.769,-1.045 0.769,-1.792 0,-0.633 -0.189,-1.14 -0.565,-1.516 -0.376,-0.376 -0.881,-0.567 -1.508,-0.567 -0.617,0 -1.145,0.215 -1.582,0.641 -0.437,0.426 -0.705,1.055 -0.799,1.879 l -3.311,-0.567 c 0.231,-1.145 0.58,-2.058 1.045,-2.742 0.465,-0.684 1.115,-1.223 1.947,-1.615 0.832,-0.392 1.768,-0.586 2.802,-0.586 1.768,0 3.188,0.567 4.256,1.696 0.879,0.925 1.32,1.972 1.32,3.139 0,1.654 -0.899,2.973 -2.698,3.959 1.068,0.231 1.919,0.749 2.561,1.553 0.642,0.804 0.957,1.775 0.957,2.911 0,1.651 -0.601,3.057 -1.804,4.22 -1.203,1.163 -2.696,1.745 -4.487,1.745 -1.697,0 -3.103,-0.49 -4.22,-1.472 -1.117,-0.982 -1.77,-2.264 -1.947,-3.85 z M 23.216,31.886 c 0,-2.624 0.391,-4.79 1.169,-6.486 0.778,-1.696 1.796,-2.963 3.051,-3.797 1.255,-0.834 2.779,-1.247 4.567,-1.247 2.589,0 4.698,0.987 6.335,2.963 1.637,1.976 2.447,4.786 2.447,8.433 0,3.686 -0.863,6.567 -2.59,8.645 -1.517,1.833 -3.577,2.748 -6.177,2.748 -2.623,0 -4.694,-0.902 -6.209,-2.719 -1.724,-2.074 -2.59,-4.919 -2.59,-8.54 z m 3.792,-0.149 c 0,2.54 0.482,4.448 1.441,5.715 0.959,1.267 2.154,1.908 3.575,1.908 1.431,0 2.616,-0.632 3.557,-1.892 0.941,-1.26 1.415,-3.194 1.415,-5.809 0,-2.556 -0.461,-4.448 -1.376,-5.675 -0.915,-1.227 -2.115,-1.836 -3.596,-1.836 -1.481,0 -2.69,0.619 -3.616,1.849 -0.939,1.24 -1.402,3.15 -1.402,5.74 z"
         stroke="none"
         fill="#00b1eb"
         id="path2"
         style="display:inline" />
    </g>
  </symbol>
  <path
     style="fill:#000000;fill-opacity:1;stroke:#000000;stroke-width:0.18;stroke-opacity:1;stroke-dasharray:none"
     d="M 35.879347,74.781639 C 22.460755,74.210505 10.47883,66.573508 4.2141726,54.599006 2.1807197,50.712189 0.8147081,46.25743 0.28974005,41.800872 -0.03040829,39.083069 -0.03033877,35.805973 0.28992579,33.045929 1.6183514,21.597542 8.3088131,11.278331 18.263028,5.3246373 24.284698,1.7230294 31.24795,-0.11485007 38.235223,0.05317972 c 0.875494,0.02105387 2.064574,0.08268663 2.6424,0.13696169 7.826181,0.73511105 15.006265,3.79098309 21.043699,8.95628099 0.968708,0.8287734 2.998565,2.8564116 3.81506,3.8108926 7.185981,8.400396 10.298844,19.066732 8.727628,29.905525 -1.714422,11.82665 -9.154754,22.256029 -19.803546,27.759348 -5.804883,2.999972 -12.288118,4.435808 -18.781117,4.159451 z m 4.011356,-3.183749 c 3.478473,-0.252779 7.021841,-1.058336 10.240841,-2.328178 1.266805,-0.499732 3.772128,-1.744781 4.964586,-2.467213 7.796163,-4.723153 13.361078,-12.191361 15.56968,-20.894763 1.108248,-4.367255 1.348401,-8.935338 0.706304,-13.434858 C 70.01462,22.960245 64.57528,14.349482 56.509176,8.9440603 54.003875,7.2651577 50.880939,5.7466529 48.072595,4.8418353 42.425961,3.022552 36.280944,2.6779644 30.562709,3.859952 22.257206,5.5767406 15.070916,10.152097 9.9167122,17.004815 7.1743629,20.650877 5.0928161,25.150809 4.0428131,29.703133 3.5023132,32.04649 3.2516426,34.136079 3.2026074,36.707087 c -0.038455,2.016283 0.024376,3.320818 0.2438038,5.061949 1.1598029,9.202897 6.0818566,17.612213 13.5540958,23.157135 5.135993,3.811266 11.202899,6.099731 17.605394,6.640831 1.186915,0.10031 4.09554,0.11731 5.284802,0.03089 z"
     id="path9" />
  <path
     style="fill:#000000;fill-opacity:1;stroke:#000000;stroke-width:0.111;stroke-dasharray:none;stroke-opacity:1"
     d="m 32.632059,44.666547 c -1.137929,-0.122293 -2.015658,-0.379254 -2.960762,-0.866783 -1.696936,-0.87536 -3.084052,-2.557127 -3.923554,-4.756996 -0.96148,-2.519506 -1.172515,-6.321656 -0.528812,-9.527411 0.269224,-1.340782 0.861901,-2.818195 1.572177,-3.919088 1.302343,-2.018567 3.060352,-3.165821 5.373786,-3.50686 0.859043,-0.126638 2.492114,-0.09367 3.205075,0.0647 1.585321,0.352146 2.808164,1.023146 3.94813,2.166421 2.148411,2.154646 3.122775,5.263877 3.003723,9.584979 -0.07325,2.658477 -0.441392,4.311511 -1.382592,6.208051 -0.877158,1.767494 -2.151132,3.095923 -3.659092,3.815497 -1.28884,0.615013 -3.105571,0.903267 -4.648079,0.737494 z M 34.58971,40.8799 c 1.318169,-0.279338 2.527253,-1.334348 3.200588,-2.792738 0.63513,-1.375637 0.93946,-3.611217 0.797618,-5.859214 -0.165103,-2.616666 -0.740717,-4.183773 -1.95881,-5.33286 -0.730937,-0.68953 -1.449477,-1.022087 -2.480985,-1.148261 -1.417432,-0.173381 -2.75691,0.313003 -3.754654,1.363368 -0.732753,0.771398 -1.148045,1.574361 -1.448858,2.801349 -0.278784,1.137134 -0.324131,1.625967 -0.3203,3.452747 0.0039,1.858066 0.0678,2.450033 0.384909,3.565649 0.595972,2.096678 2.047415,3.636338 3.750186,3.978118 0.417873,0.08388 1.370813,0.06921 1.830306,-0.02816 z"
     id="path10" />
  <path
     style="fill:#000000;fill-opacity:1;stroke:#000000;stroke-width:0.207;stroke-dasharray:none;stroke-opacity:1"
     d="M 48.136267,57.074288 C 45.377202,56.756 43.344579,54.845108 42.919551,52.169994 l -0.04703,-0.295989 0.228242,-0.03508 c 0.690194,-0.106081 3.130438,-0.37598 3.157219,-0.3492 0.01732,0.01732 0.08699,0.24848 0.154816,0.513688 0.316986,1.2394 1.040004,1.960972 2.163134,2.158808 1.326589,0.233674 2.57909,-0.664796 2.941572,-2.110108 0.109319,-0.435879 0.108938,-1.650811 -6.38e-4,-2.037514 -0.223356,-0.788249 -0.764383,-1.454027 -1.431938,-1.762118 -0.351606,-0.162274 -0.452482,-0.1789 -1.057252,-0.174261 -0.376414,0.0029 -0.849248,0.04931 -1.082056,0.106245 -0.227423,0.05561 -0.41871,0.0959 -0.425082,0.08953 -0.0064,-0.0064 0.07223,-0.613018 0.174682,-1.348103 0.102447,-0.735085 0.186287,-1.355727 0.186311,-1.379205 2.4e-5,-0.02348 0.193448,-0.06211 0.429832,-0.08586 0.965707,-0.097 1.507673,-0.31994 1.964182,-0.807985 0.470447,-0.502946 0.566792,-0.782093 0.566792,-1.642202 0,-0.670624 -0.01425,-0.759018 -0.169413,-1.050593 -0.202024,-0.379643 -0.490803,-0.664205 -0.88118,-0.868314 -0.247701,-0.12951 -0.377115,-0.149852 -0.955085,-0.150126 -0.58756,-2.79e-4 -0.710987,0.0197 -1.018757,0.16487 -0.682506,0.321935 -1.192892,1.038924 -1.357999,1.907715 -0.06948,0.365603 -0.08307,0.386469 -0.233382,0.358417 -0.08778,-0.01638 -0.811452,-0.139502 -1.608152,-0.2736 -1.212323,-0.204055 -1.448545,-0.261129 -1.448545,-0.349986 0,-0.179977 0.312708,-1.196541 0.512488,-1.666018 0.692084,-1.626373 2.097188,-2.678119 4.027667,-3.014781 0.775146,-0.13518 2.16162,-0.09026 2.851779,0.0924 0.989384,0.261847 1.780803,0.717129 2.487778,1.43115 1.393896,1.40779 1.766155,3.30944 0.968404,4.947005 -0.184573,0.378879 -0.359063,0.602517 -0.844544,1.08243 -0.353872,0.349812 -0.77892,0.698861 -1.007965,0.82774 -0.217832,0.122569 -0.39691,0.237561 -0.397952,0.255538 -0.001,0.01798 0.243061,0.115853 0.54245,0.217504 1.931552,0.655812 3.070292,2.447744 2.936397,4.620743 -0.09117,1.479647 -0.656359,2.705663 -1.739192,3.772697 -1.043814,1.028583 -2.247632,1.596362 -3.736681,1.762401 -0.685056,0.07639 -0.946197,0.07582 -1.634189,-0.0035 z"
     id="path11" />
</svg>
