<svg version="1.0" xmlns="http://www.w3.org/2000/svg"
 width="24.000000pt" height="24.000000pt" viewBox="0 0 96.000000 96.000000"
 preserveAspectRatio="xMidYMid meet">
<g transform="translate(0.000000,96.000000) scale(0.100000,-0.100000)"
fill="currentColor" stroke="none">
<path fill="currentColor" d="M150 480 l0 -330 330 0 330 0 0 330 0 330 -330 0 -330 0 0 -330z
m600 0 l0 -270 -270 0 -270 0 0 270 0 270 270 0 270 0 0 -270z"/>
<path fill="currentColor" d="M304 656 l-34 -34 0 -112 0 -112 34 -34 c26 -26 42 -34 71 -34 29 0
45 8 71 34 l34 34 0 112 0 112 -34 34 c-26 26 -42 34 -71 34 -29 0 -45 -8 -71
-34z m104 -38 c16 -16 16 -200 0 -216 -7 -7 -21 -12 -33 -12 -38 0 -45 19 -45
120 0 101 7 120 45 120 12 0 26 -5 33 -12z"/>
<path fill="currentColor" d="M562 487 c-36 -38 -29 -51 23 -44 36 5 45 4 45 -8 0 -8 -7 -15 -15
-15 -10 0 -15 -10 -15 -30 0 -20 5 -30 15 -30 8 0 15 -7 15 -15 0 -12 -9 -13
-45 -8 -52 7 -60 -9 -22 -45 29 -27 67 -28 98 -3 21 16 24 28 25 96 2 70 0 80
-21 101 -31 31 -75 31 -103 1z"/>
</svg>